<svg xmlns="http://www.w3.org/2000/svg" viewBox="0 0 46.173 27.284">
  <defs>
    <style>
      .cls-1 {
        fill: #fff;
      }
    </style>
  </defs>
  <path id="account-group" class="cls-1" d="M24.086,6a6.3,6.3,0,1,0,6.3,6.3,6.3,6.3,0,0,0-6.3-6.3M11.494,10.554a5.247,5.247,0,1,0,4.386,8.1A10.2,10.2,0,0,1,13.593,12.3a6.354,6.354,0,0,1,.084-1.259,5.108,5.108,0,0,0-2.183-.483m25.185,0a5.108,5.108,0,0,0-2.183.483A6.354,6.354,0,0,1,34.58,12.3a10.2,10.2,0,0,1-2.288,6.359,5.241,5.241,0,1,0,4.386-8.1M24.086,22.79c-4.2,0-12.593,2.1-12.593,6.3v4.2H36.679v-4.2c0-4.2-8.4-6.3-12.593-6.3M8.7,24.826C5.2,25.435,1,27.072,1,29.779v3.5H7.3v-4.2A7.6,7.6,0,0,1,8.7,24.826m30.768,0a7.6,7.6,0,0,1,1.406,4.26v4.2h6.3v-3.5C47.173,27.072,42.975,25.435,39.47,24.826Z" transform="translate(-1 -6)"/>
</svg>
