<svg xmlns="http://www.w3.org/2000/svg" viewBox="0 0 42.657 40.243">
  <defs>
    <style>
      .cls-1 {
        fill: #fff;
      }
    </style>
  </defs>
  <path id="gavel" class="cls-1" d="M44.043,38.7,23.654,19.479l2.973-2.843,1.529,1.421a2.207,2.207,0,0,0,2.995,0l1.508-1.421a1.914,1.914,0,0,0,0-2.823L20.639,2.483a2.207,2.207,0,0,0-2.995,0L16.136,3.9a1.914,1.914,0,0,0,0,2.823l1.508,1.381-3.016,2.863a2.207,2.207,0,0,0-2.995,0,1.937,1.937,0,0,0,0,2.843L8.639,16.637,7.131,15.215a2.234,2.234,0,0,0-3.016,0L2.629,16.637a1.937,1.937,0,0,0,0,2.843l12,11.311a2.234,2.234,0,0,0,3.016,0l1.487-1.4a1.9,1.9,0,0,0,0-2.843l-1.487-1.421L20.639,22.3,41.048,41.54a2.207,2.207,0,0,0,2.995,0,1.937,1.937,0,0,0,0-2.843M6.452,36.135a4.131,4.131,0,0,0-4.248,4v2H23.442v-2a4.131,4.131,0,0,0-4.248-4Z" transform="translate(-2.008 -1.897)"/>
</svg>
